# Alias OBJ Model File
# Exported from SketchUp, (c) 2000-2012 Trimble Navigation Limited
# File units = meters

mtllib boat.mtl

g Mesh1 Boat1 Model

usemtl _1
v 0.579211 0.130849 0.339314
vt -19.7575 17.7041
vn -1 0 -0
v 0.579211 0.130849 -0.350686
vt -19.7575 17.9521
v 0.579211 -1.06404e-15 -0.350686
vt -19.7339 17.9521
v 0.579211 1.60547e-15 0.339314
vt -19.7339 17.7041
f 1/1/1 2/2/1 3/3/1 4/4/1 

v -0.640789 0.130849 -0.350686
vn -3.53998e-16 -1 -6.17439e-16
v 0.449693 0.130849 -0.350681
vt -19.5396 17.9521
v 0.462124 0.130849 -0.350681
vt -19.5374 17.9521
v 0.488564 0.130849 -0.350682
vt -19.5327 17.9521
vt -19.5166 17.9521
vt -19.5166 17.7042
v -0.640789 0.130849 0.339319
f 5/3/2 6/5/2 7/6/2 8/7/2 2/8/2 1/9/2 9/4/2 

v -0.640789 0.390849 -0.350686
vt -19.9838 17.3754
vn 1.37962e-06 -8.05354e-06 -1
v 0.579211 0.390849 -0.350686
vt -19.774 17.3754
vt -19.774 17.4689
vt -19.7896 17.4689
vt -19.7941 17.4689
vt -19.7963 17.4689
vt -19.9838 17.4689
f 10/10/3 11/11/3 2/12/3 8/13/3 7/14/3 6/15/3 5/16/3 

v 0.581411 0.390849 -0.440682
vt -19.7723 17.4689
vn -7.3642e-17 -1 -2.00635e-15
v 0.581411 0.390849 -0.350682
vt -19.7723 17.4965
vt -19.7726 17.4965
vt -19.9838 17.4965
v -0.640789 0.390849 -0.440682
f 12/17/4 13/18/4 11/19/4 10/20/4 14/16/4 

vt -19.5473 17.4689
v 0.581411 0.130849 -0.440682
vt -19.5473 17.3754
v 0.581411 0.130849 -0.350682
vt -19.5311 17.3754
vt -19.5311 17.4689
f 12/21/1 15/22/1 16/23/1 13/24/1 

vt -19.7736 17.4689
vn 2.72681e-18 -4.57967e-16 1
v -0.640789 0.130849 -0.440682
vt -19.7736 17.3754
f 14/25/5 17/26/5 15/22/5 12/21/5 

vt -20 17.4689
vn 1 -2.08244e-15 1.40377e-14
vt -20 17.3754
f 10/27/6 5/28/6 17/10/6 14/16/6 

v -0.730789 0.390849 -0.350686
vn 0 0 1
v -0.730789 0.130849 -0.350686
f 18/21/7 19/22/7 5/23/7 10/24/7 

v -0.730789 0.130849 0.339319
vn 1 -6.94146e-16 2.6156e-16
vt -19.6497 17.3754
vt -19.6497 17.4689
v -0.730789 0.390849 0.339319
f 20/26/8 19/29/8 18/30/8 21/25/8 

vt -19.7736 17.4695
vn 7.51991e-16 1 -3.2695e-17
vt -19.6497 17.4695
vt -19.6497 17.4976
vt -19.7736 17.4976
f 9/31/9 5/32/9 19/33/9 20/34/9 

vt -19.9765 17.9521
vn 1 1.10343e-14 7.29583e-21
vt -19.9765 17.7041
v -0.640789 1.60547e-15 0.339314
vt -20 17.7042
v -0.640789 -1.06404e-15 -0.350686
vt -20 17.9521
f 5/35/10 9/36/10 22/37/10 23/38/10 

v -0.640789 0.390849 0.339319
vn -1 0 -2.09248e-15
vt -19.8687 17.3754
vt -19.8687 17.4689
f 24/10/11 10/39/11 5/40/11 9/16/11 

vn -7.51991e-16 -1 3.2695e-17
vt -19.868 17.4689
vt -19.868 17.4965
f 21/16/12 18/41/12 10/42/12 24/20/12 

vn 4.81274e-14 7.45243e-31 -1
f 24/27/13 9/28/13 20/10/13 21/16/13 

vn 1.97198e-06 -9.25313e-06 1
v 0.579211 0.390849 0.339319
f 9/16/14 1/12/14 25/11/14 24/10/14 

vn 1.99881e-16 1 -3.72714e-15
v -0.640789 0.130849 0.429319
v 0.581411 0.130849 0.429319
vt -19.5473 17.4976
v 0.581411 0.130849 0.339319
vt -19.5473 17.4695
vt -19.5477 17.4695
f 9/31/15 26/34/15 27/43/15 28/44/15 1/45/15 

vn 1 -2.08244e-15 -3.40903e-14
v -0.640789 0.390849 0.429319
f 9/28/16 24/27/16 29/16/16 26/10/16 

v 0.581411 0.390849 0.339319
vn -6.31226e-17 -1 1.86296e-15
v 0.581411 0.390849 0.429319
f 30/18/17 31/17/17 29/16/17 24/20/17 25/19/17 

f 27/22/1 31/21/1 30/24/1 28/23/1 

vn 2.72681e-18 -4.57967e-16 -1
f 26/26/18 29/25/18 31/21/18 27/22/18 

usemtl FrontColor
vt 22.9048 15.3879
vn -0.00109355 -9.25313e-06 0.999999
vt 22.8182 15.3879
vt 22.8182 5.15165
vt 22.9048 5.15165
f 30/46/19 25/47/19 1/48/19 28/49/19 

usemtl _1
v 0.669211 0.390849 -0.350686
vn -5.72921e-16 -1 4.35942e-17
v 0.669211 0.390849 0.339319
vt -19.9838 17.4958
vt -19.868 17.4958
f 32/41/20 33/16/20 30/50/20 25/20/20 11/42/20 13/51/20 

v 0.669211 0.130849 -0.350686
vn -1 -6.94146e-16 2.6156e-16
v 0.669211 0.130849 0.339319
f 34/29/21 35/26/21 33/25/21 32/30/21 

vn -4.87928e-16 1 2.94253e-16
vt -19.7736 17.4702
v 0.619211 0.130849 0.339319
vt -19.7736 17.482
v 0.619211 0.130849 -0.350686
vt -19.6497 17.482
vt -19.6497 17.4702
f 2/32/22 1/31/22 28/52/22 36/53/22 35/34/22 34/33/22 37/54/22 16/55/22 

vn 1 -2.08246e-15 2.0925e-15
f 11/39/23 25/10/23 1/16/23 2/40/23 

usemtl FrontColor
vt 22.7824 5.15153
vn -0.00153071 6.94729e-15 0.999999
vt 22.869 5.15153
vt 22.869 15.3877
vt 22.7824 15.3877
f 2/56/24 16/57/24 13/58/24 11/59/24 

usemtl _1
vn 4.33462e-17 1 1.83694e-15
vt -19.5717 17.4695
vt -19.5693 17.4695
vt -19.5645 17.4695
f 17/34/25 5/31/25 6/60/25 7/61/25 8/62/25 2/45/25 16/44/25 15/43/25 

vt -19.7573 17.9988
vn -1.37962e-06 -1.60026e-05 1
vt -19.7573 17.9521
vt -19.7736 17.9521
vt -19.7783 17.9521
vt -19.7806 17.9521
vt -19.9765 17.9988
f 3/63/26 2/64/26 8/65/26 7/66/26 6/67/26 5/35/26 23/68/26 

vn -3.21137e-31 1 -3.86885e-15
v -0.510789 1.60547e-15 0.339314
vt -19.9531 17.9521
vt -19.7573 17.7041
f 23/36/27 22/35/27 38/69/27 4/64/27 3/70/27 

vn -1.78751e-06 2.0572e-05 -1
vt -19.7573 17.9982
vt -19.5408 17.9982
vt -19.5408 17.9521
vt -19.7342 17.9521
f 22/64/28 9/71/28 1/72/28 4/73/28 38/74/28 

vn 3.73465e-05 -2.45076e-06 1
vt -19.5315 17.4689
vt -19.5315 17.3754
vt -19.5383 17.3754
f 32/21/29 13/75/29 16/76/29 37/77/29 34/22/29 

vt -19.9928 17.3754
vn -5.03139e-14 -2.3831e-15 -1
vt -19.9996 17.3754
vt -19.9996 17.4689
f 36/78/30 28/79/30 30/80/30 33/16/30 35/10/30 

